<?xml version="1.0" encoding="UTF-8" standalone="no"?>
<svg
   width="68.8650818"
   height="15.6029997"
   viewBox="0 0 68.8650818 15.6029997"
   version="1.1"
   id="svg1096"
   sodipodi:docname="logo-salesforce.svg"
   inkscape:version="1.2.2 (b0a8486541, 2022-12-01)"
   xmlns:inkscape="http://www.inkscape.org/namespaces/inkscape"
   xmlns:sodipodi="http://sodipodi.sourceforge.net/DTD/sodipodi-0.dtd"
   xmlns="http://www.w3.org/2000/svg"
   xmlns:svg="http://www.w3.org/2000/svg">
  <defs
     id="defs1100" />
  <sodipodi:namedview
     id="namedview1098"
     pagecolor="#505050"
     bordercolor="#eeeeee"
     borderopacity="1"
     inkscape:showpageshadow="0"
     inkscape:pageopacity="0"
     inkscape:pagecheckerboard="0"
     inkscape:deskcolor="#505050"
     showgrid="false"
     inkscape:zoom="3.6875"
     inkscape:cx="32.9491525"
     inkscape:cy="9.76271186"
     inkscape:window-width="1704"
     inkscape:window-height="1000"
     inkscape:window-x="0"
     inkscape:window-y="0"
     inkscape:window-maximized="1"
     inkscape:current-layer="svg1096" />
  <path
     d="m 0.0213431,10.844 0.37,-1.027 c 0.059,-0.176 0.192,-0.118 0.246,-0.085 0.103,0.061 0.177,0.116 0.31,0.194 1.09,0.689 2.1,0.696 2.415,0.696 0.816,0 1.322,-0.432 1.322,-1.015 v -0.03 c 0,-0.634 -0.78,-0.874 -1.681,-1.15 l -0.2,-0.064 c -1.237,-0.352 -2.56,-0.861 -2.56,-2.427 V 5.904 c 0,-1.486 1.199,-2.523 2.915,-2.523 l 0.188,-0.002 c 1.008,0 1.982,0.293 2.688,0.721 0.064,0.04 0.126,0.114 0.09,0.212 l -0.38,1.027 c -0.067,0.175 -0.25,0.059 -0.25,0.059 a 5.41,5.41 0 0 0 -2.382,-0.611 c -0.728,0 -1.196,0.386 -1.196,0.91 V 5.73 c 0,0.611 0.802,0.872 1.732,1.175 l 0.16,0.05 c 1.233,0.39 2.549,0.93 2.549,2.415 v 0.031 c 0,1.605 -1.166,2.602 -3.041,2.602 -0.921,0 -1.802,-0.142 -2.734,-0.637 -0.176,-0.102 -0.35,-0.19 -0.522,-0.315 -0.018,-0.026 -0.097,-0.057 -0.04,-0.207 z m 27.457,0 0.371,-1.027 c 0.054,-0.168 0.211,-0.106 0.245,-0.085 0.102,0.063 0.178,0.116 0.31,0.194 1.092,0.689 2.1,0.696 2.418,0.696 0.813,0 1.32,-0.432 1.32,-1.015 v -0.03 c 0,-0.634 -0.779,-0.874 -1.68,-1.15 l -0.2,-0.064 c -1.239,-0.352 -2.562,-0.861 -2.562,-2.427 V 5.904 c 0,-1.486 1.2,-2.523 2.916,-2.523 l 0.187,-0.002 c 1.008,0 1.983,0.293 2.69,0.721 0.062,0.04 0.125,0.114 0.09,0.212 -0.035,0.091 -0.347,0.931 -0.38,1.027 -0.069,0.175 -0.25,0.059 -0.25,0.059 a 5.41,5.41 0 0 0 -2.383,-0.611 c -0.728,0 -1.196,0.386 -1.196,0.91 V 5.73 c 0,0.611 0.801,0.872 1.732,1.175 l 0.16,0.05 c 1.233,0.39 2.548,0.93 2.548,2.415 v 0.031 c 0,1.605 -1.165,2.602 -3.04,2.602 -0.922,0 -1.803,-0.142 -2.734,-0.637 -0.176,-0.102 -0.35,-0.19 -0.523,-0.315 -0.018,-0.026 -0.097,-0.057 -0.039,-0.207 z m 20.31,-4.829 c 0.154,0.516 0.23,1.083 0.23,1.682 0,0.6 -0.076,1.165 -0.23,1.681 a 3.77,3.77 0 0 1 -0.71,1.361 3.384,3.384 0 0 1 -1.204,0.906 c -0.48,0.22 -1.044,0.33 -1.678,0.33 -0.634,0 -1.2,-0.11 -1.678,-0.33 a 3.384,3.384 0 0 1 -1.204,-0.906 3.793,3.793 0 0 1 -0.711,-1.36 5.909,5.909 0 0 1 -0.23,-1.682 c 0,-0.6 0.077,-1.166 0.23,-1.682 0.154,-0.52 0.393,-0.978 0.71,-1.36 a 3.442,3.442 0 0 1 1.205,-0.914 c 0.479,-0.224 1.042,-0.337 1.678,-0.337 0.636,0 1.199,0.113 1.678,0.337 0.478,0.223 0.884,0.53 1.204,0.914 0.318,0.382 0.558,0.84 0.71,1.36 z m -1.564,1.682 c 0,-0.907 -0.168,-1.62 -0.502,-2.12 -0.33,-0.496 -0.83,-0.736 -1.526,-0.736 -0.696,0 -1.192,0.24 -1.518,0.736 -0.327,0.5 -0.494,1.213 -0.494,2.12 0,0.906 0.167,1.624 0.496,2.128 0.324,0.502 0.82,0.745 1.516,0.745 0.696,0 1.196,-0.244 1.526,-0.745 0.332,-0.504 0.502,-1.222 0.502,-2.128 z m 14.422,2.63 0.384,1.062 c 0.05,0.13 -0.063,0.187 -0.063,0.187 -0.593,0.23 -1.416,0.394 -2.217,0.394 -1.358,0 -2.398,-0.391 -3.092,-1.163 -0.69,-0.77 -1.042,-1.817 -1.042,-3.116 0,-0.601 0.087,-1.17 0.257,-1.685 0.17,-0.52 0.425,-0.978 0.761,-1.36 a 3.613,3.613 0 0 1 1.261,-0.914 c 0.5,-0.223 1.088,-0.335 1.744,-0.335 0.443,0 0.837,0.027 1.175,0.077 0.361,0.056 0.842,0.186 1.045,0.265 0.037,0.014 0.14,0.064 0.098,0.185 -0.148,0.417 -0.249,0.689 -0.386,1.069 -0.06,0.162 -0.182,0.108 -0.182,0.108 -0.515,-0.162 -1.009,-0.236 -1.654,-0.236 -0.775,0 -1.357,0.258 -1.737,0.763 -0.384,0.509 -0.599,1.176 -0.602,2.063 -0.003,0.973 0.241,1.694 0.673,2.14 0.431,0.445 1.033,0.67 1.791,0.67 0.307,0 0.597,-0.02 0.858,-0.061 0.258,-0.041 0.5,-0.121 0.728,-0.21 0,0 0.147,-0.055 0.2,0.097 z m 8.01,-4.607 c 0.341,1.194 0.163,2.225 0.157,2.282 -0.013,0.136 -0.153,0.138 -0.153,0.138 l -5.299,-0.004 c 0.033,0.805 0.226,1.375 0.616,1.762 0.383,0.379 0.991,0.622 1.814,0.623 1.258,0.003 1.795,-0.25 2.176,-0.391 0,0 0.145,-0.052 0.2,0.092 l 0.345,0.971 c 0.07,0.163 0.014,0.22 -0.045,0.253 -0.332,0.183 -1.137,0.525 -2.669,0.529 -0.743,0.003 -1.39,-0.103 -1.923,-0.31 a 3.502,3.502 0 0 1 -1.333,-0.883 3.497,3.497 0 0 1 -0.769,-1.347 5.713,5.713 0 0 1 -0.239,-1.692 c 0,-0.6 0.077,-1.17 0.232,-1.691 0.155,-0.525 0.396,-0.988 0.717,-1.377 a 3.479,3.479 0 0 1 1.221,-0.93 c 0.486,-0.229 1.088,-0.341 1.75,-0.341 0.567,0 1.085,0.122 1.516,0.308 0.332,0.142 0.666,0.399 1.008,0.767 0.216,0.232 0.545,0.74 0.678,1.241 z m -5.27,1.107 h 3.78 c -0.039,-0.486 -0.134,-0.922 -0.352,-1.25 -0.332,-0.496 -0.79,-0.769 -1.485,-0.769 -0.696,0 -1.19,0.273 -1.517,0.769 -0.214,0.328 -0.352,0.746 -0.427,1.25 z m -37.175,-1.107 c 0.34,1.194 0.165,2.225 0.159,2.282 -0.014,0.136 -0.154,0.138 -0.154,0.138 l -5.3,-0.004 c 0.034,0.805 0.226,1.375 0.617,1.762 0.383,0.379 0.99,0.622 1.813,0.623 1.258,0.003 1.797,-0.25 2.177,-0.391 0,0 0.145,-0.052 0.199,0.092 l 0.346,0.971 c 0.07,0.163 0.014,0.22 -0.044,0.253 -0.334,0.183 -1.14,0.525 -2.67,0.529 -0.744,0.003 -1.391,-0.103 -1.923,-0.31 a 3.514,3.514 0 0 1 -1.334,-0.883 3.506,3.506 0 0 1 -0.767,-1.347 5.68,5.68 0 0 1 -0.241,-1.692 c 0,-0.6 0.078,-1.17 0.232,-1.691 a 3.88,3.88 0 0 1 0.718,-1.377 3.488,3.488 0 0 1 1.22,-0.93 c 0.488,-0.229 1.09,-0.341 1.75,-0.341 a 3.85,3.85 0 0 1 1.518,0.308 c 0.332,0.142 0.666,0.399 1.007,0.767 0.216,0.232 0.545,0.74 0.677,1.241 z m -5.271,1.107 h 3.782 c -0.04,-0.486 -0.135,-0.922 -0.352,-1.25 -0.33,-0.496 -0.79,-0.769 -1.485,-0.769 -0.696,0 -1.191,0.273 -1.516,0.769 -0.216,0.328 -0.353,0.746 -0.43,1.25 z m -9.346,-0.253 c 0,0 0.418,0.037 0.874,0.103 V 6.453 c 0,-0.707 -0.147,-1.04 -0.436,-1.263 -0.296,-0.226 -0.738,-0.343 -1.31,-0.343 0,0 -1.29,-0.016 -2.31,0.538 -0.047,0.028 -0.086,0.044 -0.086,0.044 0,0 -0.128,0.045 -0.174,-0.086 l -0.375,-1.008 c -0.058,-0.145 0.047,-0.211 0.047,-0.211 0.477,-0.372 1.633,-0.597 1.633,-0.597 a 8.711,8.711 0 0 1 1.421,-0.131 c 1.058,0 1.877,0.246 2.434,0.733 0.558,0.489 0.842,1.277 0.842,2.339 l 0.003,4.848 c 0,0 0.011,0.14 -0.122,0.172 0,0 -0.195,0.054 -0.37,0.095 -0.177,0.041 -0.815,0.171 -1.336,0.259 a 9.744,9.744 0 0 1 -1.61,0.134 c -0.515,0 -0.987,-0.048 -1.403,-0.143 a 2.92,2.92 0 0 1 -1.079,-0.468 2.192,2.192 0 0 1 -0.69,-0.829 c -0.163,-0.333 -0.245,-0.74 -0.245,-1.21 0,-0.461 0.097,-0.872 0.284,-1.222 0.188,-0.348 0.446,-0.643 0.77,-0.874 a 3.425,3.425 0 0 1 1.105,-0.513 c 0.413,-0.11 0.852,-0.167 1.306,-0.167 0.333,0 0.611,0.007 0.827,0.024 z m -2.109,3.724 c -0.003,-10e-4 0.475,0.375 1.554,0.309 0.758,-0.046 1.43,-0.19 1.43,-0.19 v -2.41 c 0,0 -0.678,-0.111 -1.439,-0.122 -1.079,-0.013 -1.539,0.384 -1.536,0.383 -0.318,0.226 -0.473,0.561 -0.473,1.025 0,0.297 0.053,0.529 0.16,0.691 0.067,0.107 0.096,0.147 0.304,0.314 z m 44.855,-6.455 c -0.05,0.145 -0.307,0.871 -0.4,1.112 -0.034,0.092 -0.09,0.155 -0.193,0.144 0,0 -0.304,-0.07 -0.582,-0.07 -0.191,0 -0.464,0.024 -0.71,0.1 a 1.586,1.586 0 0 0 -0.654,0.393 c -0.194,0.187 -0.351,0.45 -0.465,0.78 -0.116,0.332 -0.176,0.86 -0.176,1.39 v 3.948 a 0.16,0.16 0 0 1 -0.16,0.161 h -1.391 a 0.162,0.162 0 0 1 -0.164,-0.16 V 3.736 c 0,-0.089 0.065,-0.16 0.154,-0.16 h 1.357 c 0.09,0 0.154,0.071 0.154,0.16 v 0.646 c 0.203,-0.272 0.567,-0.512 0.896,-0.66 0.33,-0.15 0.699,-0.26 1.366,-0.22 0.347,0.021 0.798,0.116 0.889,0.151 a 0.144,0.144 0 0 1 0.079,0.19 z m -13.07,-3.663 c 0.037,0.015 0.138,0.064 0.098,0.184 l -0.407,1.113 c -0.034,0.084 -0.056,0.134 -0.229,0.082 a 2.388,2.388 0 0 0 -0.707,-0.11 c -0.21,0 -0.4,0.027 -0.568,0.083 a 1.084,1.084 0 0 0 -0.444,0.274 1.545,1.545 0 0 0 -0.372,0.566 c -0.195,0.56 -0.27,1.157 -0.28,1.195 h 1.694 c 0.143,0 0.188,0.066 0.174,0.171 l -0.198,1.102 c -0.032,0.16 -0.177,0.154 -0.177,0.154 h -1.746 l -1.193,6.756 a 10.426,10.426 0 0 1 -0.466,1.78 c -0.187,0.489 -0.38,0.846 -0.69,1.187 a 2.43,2.43 0 0 1 -0.979,0.682 c -0.367,0.135 -0.813,0.204 -1.3,0.204 -0.232,0 -0.482,-0.005 -0.777,-0.075 a 4.198,4.198 0 0 1 -0.485,-0.142 c -0.065,-0.023 -0.118,-0.106 -0.08,-0.212 0.036,-0.105 0.35,-0.964 0.392,-1.077 0.054,-0.136 0.192,-0.084 0.192,-0.084 0.094,0.04 0.16,0.066 0.285,0.091 0.127,0.025 0.297,0.047 0.426,0.047 0.231,0 0.441,-0.028 0.624,-0.09 0.22,-0.071 0.35,-0.2 0.484,-0.372 0.14,-0.181 0.254,-0.426 0.371,-0.755 0.117,-0.333 0.224,-0.773 0.316,-1.306 l 1.188,-6.633 h -1.17 c -0.14,0 -0.188,-0.066 -0.172,-0.172 l 0.196,-1.102 c 0.031,-0.16 0.18,-0.154 0.18,-0.154 h 1.201 l 0.065,-0.358 c 0.18,-1.064 0.537,-1.873 1.065,-2.404 0.531,-0.535 1.286,-0.805 2.244,-0.805 0.274,0 0.516,0.018 0.721,0.055 0.201,0.038 0.354,0.073 0.524,0.125 z m -23.676,11.46 c 0,0.09 -0.062,0.161 -0.152,0.161 h -1.405 c -0.09,0 -0.151,-0.072 -0.151,-0.16 V 0.328 c 0,-0.087 0.062,-0.159 0.15,-0.159 h 1.406 c 0.09,0 0.152,0.072 0.152,0.16 z"
     id="path1092"
     style="fill-rule:evenodd" />
</svg>
